# Blender v2.81 (sub 16) OBJ File: ''
# www.blender.org
mtllib model.mtl
o group_22_ID158.035
v 0.008161 0.008161 -0.661308
v 0.008161 0.694111 -0.008161
v 0.008161 0.008161 -0.008161
v 0.008161 0.694111 -0.661308
v 0.008161 0.694111 -0.008161
v 0.943385 0.008161 -0.008161
v 0.008161 0.008161 -0.008161
v 0.943385 0.694111 -0.008161
v 0.943385 0.008161 -0.008161
v 0.008161 0.008161 -0.661308
v 0.008161 0.008161 -0.008161
v 0.943385 0.008161 -0.661308
v 0.943385 0.694111 -0.661308
v 0.008161 0.008161 -0.661308
v 0.943385 0.008161 -0.661308
v 0.008161 0.694111 -0.661308
v 0.008161 0.694111 -0.008161
v 0.000000 0.691173 -0.658615
v 0.000000 0.691173 -0.010854
v 0.008161 0.694111 -0.661308
v 0.943385 0.694111 -0.008161
v 0.943385 0.008161 -0.661308
v 0.943385 0.008161 -0.008161
v 0.943385 0.694111 -0.661308
v 0.010854 0.691173 0.000000
v 0.943385 0.694111 -0.008161
v 0.008161 0.694111 -0.008161
v 0.940692 0.691173 0.000000
v 0.943385 0.694111 -0.661308
v 0.010854 0.691173 -0.669469
v 0.008161 0.694111 -0.661308
v 0.940692 0.691173 -0.669469
v 0.000000 0.691173 -0.658615
v 0.000000 0.002938 -0.010854
v 0.000000 0.691173 -0.010854
v 0.000000 0.002938 -0.658615
v 0.010854 0.691173 0.000000
v 0.008161 0.694111 -0.008161
v 0.000000 0.691173 -0.010854
v 0.010854 0.691173 -0.669469
v 0.000000 0.691173 -0.658615
v 0.008161 0.694111 -0.661308
v 0.951546 0.691173 -0.010854
v 0.943385 0.694111 -0.661308
v 0.943385 0.694111 -0.008161
v 0.951546 0.691173 -0.658615
v 0.940692 0.691173 0.000000
v 0.010854 0.002938 0.000000
v 0.940692 0.002938 0.000000
v 0.010854 0.691173 0.000000
v 0.951546 0.691173 -0.010854
v 0.943385 0.694111 -0.008161
v 0.940692 0.691173 0.000000
v 0.010854 0.691173 -0.669469
v 0.940692 0.002938 -0.669469
v 0.010854 0.002938 -0.669469
v 0.940692 0.691173 -0.669469
v 0.951546 0.691173 -0.658615
v 0.940692 0.691173 -0.669469
v 0.943385 0.694111 -0.661308
v 0.008161 0.000000 -0.661308
v 0.000000 0.002938 -0.010854
v 0.000000 0.002938 -0.658615
v 0.008161 0.000000 -0.008161
v 0.010854 0.691173 0.000000
v 0.000000 0.002938 -0.010854
v 0.010854 0.002938 0.000000
v 0.000000 0.691173 -0.010854
v 0.000000 0.691173 -0.658615
v 0.010854 0.002938 -0.669469
v 0.000000 0.002938 -0.658615
v 0.010854 0.691173 -0.669469
v 0.951546 0.002938 -0.658615
v 0.951546 0.691173 -0.010854
v 0.951546 0.002938 -0.010854
v 0.951546 0.691173 -0.658615
v 0.943385 0.000000 -0.008161
v 0.010854 0.002938 0.000000
v 0.008161 0.000000 -0.008161
v 0.940692 0.002938 0.000000
v 0.951546 0.691173 -0.010854
v 0.940692 0.002938 0.000000
v 0.951546 0.002938 -0.010854
v 0.940692 0.691173 0.000000
v 0.010854 0.002938 -0.669469
v 0.943385 0.000000 -0.661308
v 0.008161 0.000000 -0.661308
v 0.940692 0.002938 -0.669469
v 0.940692 0.691173 -0.669469
v 0.951546 0.002938 -0.658615
v 0.940692 0.002938 -0.669469
v 0.951546 0.691173 -0.658615
v 0.943385 0.000000 -0.661308
v 0.008161 0.000000 -0.008161
v 0.008161 0.000000 -0.661308
v 0.943385 0.000000 -0.008161
v 0.010854 0.002938 0.000000
v 0.000000 0.002938 -0.010854
v 0.008161 0.000000 -0.008161
v 0.010854 0.002938 -0.669469
v 0.008161 0.000000 -0.661308
v 0.000000 0.002938 -0.658615
v 0.951546 0.002938 -0.658615
v 0.943385 0.000000 -0.008161
v 0.943385 0.000000 -0.661308
v 0.951546 0.002938 -0.010854
v 0.951546 0.002938 -0.010854
v 0.940692 0.002938 0.000000
v 0.943385 0.000000 -0.008161
v 0.951546 0.002938 -0.658615
v 0.943385 0.000000 -0.661308
v 0.940692 0.002938 -0.669469
v 0.928933 0.718562 -0.686931
v -0.005640 0.707526 -0.666715
v 0.942479 0.752937 -0.359720
v 0.007906 0.741901 -0.339503
v 0.007906 0.741901 -0.339503
v -0.005640 0.707526 -0.666715
v 0.008033 0.738970 -0.339022
v -0.005257 0.698644 -0.665255
v 0.928933 0.718562 -0.686931
v 0.929315 0.709680 -0.685471
v -0.005640 0.707526 -0.666715
v -0.005257 0.698644 -0.665255
v 0.942479 0.752937 -0.359720
v 0.942605 0.750006 -0.359238
v 0.928933 0.718562 -0.686931
v 0.929315 0.709680 -0.685471
v 0.942605 0.750006 -0.359238
v 0.942479 0.752937 -0.359720
v 0.008033 0.738970 -0.339022
v 0.007906 0.741901 -0.339503
v 0.929315 0.709680 -0.685471
v 0.942605 0.750006 -0.359238
v -0.005257 0.698644 -0.665255
v 0.008033 0.738970 -0.339022
v 0.008634 0.782951 -0.326060
v 0.970453 0.697720 -0.049393
v 0.941163 0.767494 -0.371531
v 0.037924 0.713177 -0.003921
v 0.037924 0.713177 -0.003921
v 0.008399 0.780117 -0.326975
v 0.037213 0.704591 -0.006696
v 0.008634 0.782951 -0.326060
v 0.969742 0.689134 -0.052168
v 0.037924 0.713177 -0.003921
v 0.037213 0.704591 -0.006696
v 0.970453 0.697720 -0.049393
v 0.940928 0.764661 -0.372447
v 0.970453 0.697720 -0.049393
v 0.969742 0.689134 -0.052168
v 0.941163 0.767494 -0.371531
v 0.941163 0.767494 -0.371531
v 0.008399 0.780117 -0.326975
v 0.008634 0.782951 -0.326060
v 0.940928 0.764661 -0.372447
v 0.969742 0.689134 -0.052168
v 0.008399 0.780117 -0.326975
v 0.940928 0.764661 -0.372447
v 0.037213 0.704591 -0.006696
vt 0.000000 0.005961
vt 0.367909 0.507024
vt 0.367909 0.005961
vt 0.000000 0.507024
vt 0.003491 0.507024
vt 0.362561 0.008915
vt 0.003491 0.008915
vt 0.362561 0.507024
vt 0.000000 0.507024
vt 0.367909 0.000000
vt 0.367909 0.507024
vt 0.000000 0.000000
vt 0.362561 0.507024
vt 0.003491 0.008915
vt 0.362561 0.008915
vt 0.003491 0.507024
vt 0.363424 0.507024
vt 0.005965 0.504878
vt 0.361944 0.504878
vt 0.004485 0.507024
vt 0.367909 0.507024
vt 0.000000 0.005961
vt 0.367909 0.005961
vt 0.000000 0.507024
vt 0.369182 0.505014
vt 0.727219 0.507147
vt 0.368148 0.507147
vt 0.726185 0.505014
vt 0.362561 0.507024
vt 0.004524 0.504891
vt 0.003491 0.507024
vt 0.361528 0.504891
vt 0.005965 0.504878
vt 0.361944 0.002146
vt 0.361944 0.504878
vt 0.005965 0.002146
vt 0.369182 0.505014
vt 0.368148 0.507147
vt 0.365015 0.505014
vt 0.004524 0.504891
vt 0.000357 0.504891
vt 0.003491 0.507024
vt 0.733499 0.519257
vt 0.732371 0.991591
vt 0.732371 0.517302
vt 0.733499 0.989635
vt 0.726185 0.505014
vt 0.369182 0.005246
vt 0.726185 0.005246
vt 0.369182 0.505014
vt 0.730352 0.505014
vt 0.727219 0.507147
vt 0.726185 0.505014
vt 0.004524 0.504891
vt 0.361528 0.005123
vt 0.004524 0.005123
vt 0.361528 0.504891
vt 0.733499 0.989635
vt 0.733499 0.997517
vt 0.732371 0.991591
vt 0.372438 0.991591
vt 0.369305 0.519257
vt 0.369305 0.989635
vt 0.372438 0.517302
vt 0.369182 0.505014
vt 0.365015 0.005246
vt 0.369182 0.005246
vt 0.365015 0.505014
vt 0.000357 0.504891
vt 0.004524 0.005123
vt 0.000357 0.005123
vt 0.004524 0.504891
vt 0.997741 0.989635
vt 0.733499 0.519257
vt 0.997741 0.519257
vt 0.733499 0.989635
vt 0.731509 0.517302
vt 0.373472 0.511376
vt 0.372438 0.517302
vt 0.730475 0.511376
vt 0.733499 0.519257
vt 0.997741 0.511376
vt 0.997741 0.519257
vt 0.733499 0.511376
vt 0.373472 0.997517
vt 0.731509 0.991591
vt 0.372438 0.991591
vt 0.730475 0.997517
vt 0.733499 0.997517
vt 0.997741 0.989635
vt 0.997741 0.997517
vt 0.733499 0.989635
vt 0.731509 0.991591
vt 0.372438 0.517302
vt 0.372438 0.991591
vt 0.731509 0.517302
vt 0.373472 0.511376
vt 0.369305 0.519257
vt 0.372438 0.517302
vt 0.373472 0.997517
vt 0.372438 0.991591
vt 0.369305 0.989635
vt 0.734642 0.989635
vt 0.731509 0.517302
vt 0.731509 0.991591
vt 0.734642 0.519257
vt 0.734642 0.519257
vt 0.730475 0.511376
vt 0.731509 0.517302
vt 0.734642 0.989635
vt 0.731509 0.991591
vt 0.730475 0.997517
vt 0.000000 0.000000
vt 0.000000 0.000000
vt 0.000000 0.000000
vt 0.000000 0.000000
vt 0.000000 0.000000
vt 0.000000 0.000000
vt 0.000000 0.000000
vt 0.000000 0.000000
vt 0.000000 0.000000
vt 0.000000 0.000000
vt 0.000000 0.000000
vt 0.000000 0.000000
vt 0.000000 0.000000
vt 0.000000 0.000000
vt 0.000000 0.000000
vt 0.000000 0.000000
vt 0.000000 0.000000
vt 0.000000 0.000000
vt 0.000000 0.000000
vt 0.000000 0.000000
vt 0.000000 0.000000
vt 0.000000 0.000000
vt 0.000000 0.000000
vt 0.000000 0.000000
vt 0.000000 0.000000
vt 0.000000 0.000000
vt 0.000000 0.000000
vt 0.000000 0.000000
vt 0.000000 0.000000
vt 0.000000 0.000000
vt 0.000000 0.000000
vt 0.000000 0.000000
vt 0.000000 0.000000
vt 0.000000 0.000000
vt 0.000000 0.000000
vt 0.000000 0.000000
vt 0.000000 0.000000
vt 0.000000 0.000000
vt 0.000000 0.000000
vt 0.000000 0.000000
vt 0.000000 0.000000
vt 0.000000 0.000000
vt 0.000000 0.000000
vt 0.000000 0.000000
vt 0.000000 0.000000
vt 0.000000 0.000000
vt 0.000000 0.000000
vt 0.000000 0.000000
vn 1.0000 0.0000 0.0000
vn 0.0000 0.0000 -1.0000
vn 0.0000 1.0000 0.0000
vn 0.0000 0.0000 1.0000
vn -0.3387 0.9409 0.0000
vn -1.0000 0.0000 0.0000
vn 0.0000 0.9409 0.3387
vn 0.0000 0.9409 -0.3387
vn -0.4278 0.7962 0.4278
vn -0.4278 0.7962 -0.4278
vn 0.3387 0.9409 0.0000
vn 0.4278 0.7962 0.4278
vn 0.4278 0.7962 -0.4278
vn -0.3387 -0.9409 0.0000
vn -0.7071 0.0000 0.7071
vn -0.7071 0.0000 -0.7071
vn 0.0000 -0.9409 0.3387
vn 0.7071 0.0000 0.7071
vn 0.0000 -0.9409 -0.3387
vn 0.7071 0.0000 -0.7071
vn 0.0000 -1.0000 0.0000
vn -0.4278 -0.7962 0.4278
vn -0.4278 -0.7962 -0.4278
vn 0.3387 -0.9409 0.0000
vn 0.4278 -0.7962 0.4278
vn 0.4278 -0.7962 -0.4278
vn -0.0140 0.9945 -0.1039
vn -0.9984 -0.0355 0.0451
vn -0.0194 -0.1630 -0.9864
vn 0.9984 0.0356 -0.0451
vn 0.9983 0.0356 -0.0451
vn 0.0194 0.1629 0.9864
vn 0.0194 0.1630 0.9864
vn 0.0144 -0.9924 0.1221
vn 0.0264 0.9775 0.2093
vn -0.9936 0.0497 0.1011
vn 0.0412 -0.3104 0.9497
vn 0.9936 -0.0497 -0.1011
vn -0.0412 0.3103 -0.9497
vn -0.0412 0.3104 -0.9497
vn -0.0272 -0.9735 -0.2271
usemtl BOX_STUFF18.040
s off
f 1/1/1 2/2/1 3/3/1
f 2/2/1 1/1/1 4/4/1
f 5/5/2 6/6/2 7/7/2
f 6/6/2 5/5/2 8/8/2
f 9/9/3 10/10/3 11/11/3
f 10/10/3 9/9/3 12/12/3
f 13/13/4 14/14/4 15/15/4
f 14/14/4 13/13/4 16/16/4
f 17/17/5 18/18/5 19/19/5
f 18/18/5 17/17/5 20/20/5
f 21/21/6 22/22/6 23/23/6
f 22/22/6 21/21/6 24/24/6
f 25/25/7 26/26/7 27/27/7
f 26/26/7 25/25/7 28/28/7
f 29/29/8 30/30/8 31/31/8
f 30/30/8 29/29/8 32/32/8
f 33/33/6 34/34/6 35/35/6
f 34/34/6 33/33/6 36/36/6
f 37/37/9 38/38/9 39/39/9
f 40/40/10 41/41/10 42/42/10
f 43/43/11 44/44/11 45/45/11
f 44/44/11 43/43/11 46/46/11
f 47/47/4 48/48/4 49/49/4
f 48/48/4 47/47/4 50/50/4
f 51/51/12 52/52/12 53/53/12
f 54/54/2 55/55/2 56/56/2
f 55/55/2 54/54/2 57/57/2
f 58/58/13 59/59/13 60/60/13
f 61/61/14 62/62/14 63/63/14
f 62/62/14 61/61/14 64/64/14
f 65/65/15 66/66/15 67/67/15
f 66/66/15 65/65/15 68/68/15
f 69/69/16 70/70/16 71/71/16
f 70/70/16 69/69/16 72/72/16
f 73/73/1 74/74/1 75/75/1
f 74/74/1 73/73/1 76/76/1
f 77/77/17 78/78/17 79/79/17
f 78/78/17 77/77/17 80/80/17
f 81/81/18 82/82/18 83/83/18
f 82/82/18 81/81/18 84/84/18
f 85/85/19 86/86/19 87/87/19
f 86/86/19 85/85/19 88/88/19
f 89/89/20 90/90/20 91/91/20
f 90/90/20 89/89/20 92/92/20
f 93/93/21 94/94/21 95/95/21
f 94/94/21 93/93/21 96/96/21
f 97/97/22 98/98/22 99/99/22
f 100/100/23 101/101/23 102/102/23
f 103/103/24 104/104/24 105/105/24
f 104/104/24 103/103/24 106/106/24
f 107/107/25 108/108/25 109/109/25
f 110/110/26 111/111/26 112/112/26
f 113/113/27 114/114/27 115/115/27
f 116/116/27 115/115/27 114/114/27
f 117/117/28 118/118/28 119/119/28
f 120/120/28 119/119/28 118/118/28
f 121/121/29 122/122/29 123/123/29
f 124/124/29 123/123/29 122/122/29
f 125/125/30 126/126/30 127/127/30
f 128/128/31 127/127/31 126/126/31
f 129/129/32 130/130/32 131/131/32
f 132/132/33 131/131/33 130/130/33
f 133/133/34 134/134/34 135/135/34
f 136/136/34 135/135/34 134/134/34
f 137/137/35 138/138/35 139/139/35
f 138/138/35 137/137/35 140/140/35
f 141/141/36 142/142/36 143/143/36
f 142/142/36 141/141/36 144/144/36
f 145/145/37 146/146/37 147/147/37
f 146/146/37 145/145/37 148/148/37
f 149/149/38 150/150/38 151/151/38
f 150/150/38 149/149/38 152/152/38
f 153/153/39 154/154/39 155/155/39
f 154/154/40 153/153/40 156/156/40
f 157/157/41 158/158/41 159/159/41
f 158/158/41 157/157/41 160/160/41
