# Blender v2.81 (sub 16) OBJ File: ''
# www.blender.org
mtllib model.mtl
o group_7_ID61.039
v 0.001484 0.560790 -1.003871
v 0.380111 0.557451 -1.003325
v 0.001575 0.550656 -1.003869
v 0.380081 0.560795 -1.003326
v 0.000048 0.561059 -0.007434
v 0.001575 0.550656 -1.003869
v 0.000140 0.550925 -0.007431
v 0.001484 0.560790 -1.003871
v 0.378645 0.561064 -0.006888
v 0.001484 0.560790 -1.003871
v 0.000048 0.561059 -0.007434
v 0.380081 0.560795 -1.003326
v 0.380111 0.557451 -1.003325
v 0.378645 0.561064 -0.006888
v 0.378676 0.557720 -0.006887
v 0.380081 0.560795 -1.003326
v 0.001575 0.550656 -1.003869
v 0.378676 0.557720 -0.006887
v 0.000140 0.550925 -0.007431
v 0.380111 0.557451 -1.003325
v 0.378676 0.557720 -0.006887
v 0.000048 0.561059 -0.007434
v 0.000140 0.550925 -0.007431
v 0.378645 0.561064 -0.006888
v 0.756261 0.005202 -0.009191
v 0.015908 0.003592 -0.001104
v 0.012909 0.000259 -0.010304
v 0.753190 0.008495 -0.000000
v 0.753190 0.008495 -0.000000
v 0.012213 0.559314 -0.001254
v 0.015908 0.003592 -0.001104
v 0.749495 0.564216 -0.000150
v 0.015908 0.003592 -0.001104
v 0.003695 0.003508 -0.013354
v 0.012909 0.000259 -0.010304
v 0.014403 0.000000 -1.006742
v 0.756261 0.005202 -0.009191
v 0.012909 0.000259 -0.010304
v 0.757754 0.004943 -1.005629
v 0.765440 0.008573 -0.012214
v 0.753190 0.008495 -0.000000
v 0.756261 0.005202 -0.009191
v 0.012213 0.559314 -0.001254
v 0.752522 0.567545 -0.009343
v 0.009170 0.562602 -0.010456
v 0.749495 0.564216 -0.000150
v 0.012213 0.559314 -0.001254
v 0.003695 0.003508 -0.013354
v 0.015908 0.003592 -0.001104
v 0.000000 0.559229 -0.013504
v 0.765440 0.008573 -0.012214
v 0.749495 0.564216 -0.000150
v 0.753190 0.008495 -0.000000
v 0.761745 0.564294 -0.012363
v 0.005179 0.003251 -1.003721
v 0.012909 0.000259 -0.010304
v 0.003695 0.003508 -0.013354
v 0.014403 0.000000 -1.006742
v 0.757754 0.004943 -1.005629
v 0.765440 0.008573 -0.012214
v 0.756261 0.005202 -0.009191
v 0.766924 0.008316 -1.002581
v 0.017429 0.003329 -1.015935
v 0.757754 0.004943 -1.005629
v 0.014403 0.000000 -1.006742
v 0.754711 0.008231 -1.014831
v 0.009170 0.562602 -0.010456
v 0.756200 0.014399 -0.009194
v 0.012848 0.009455 -0.010307
v 0.752522 0.567545 -0.009343
v 0.012213 0.559314 -0.001254
v 0.009170 0.562602 -0.010456
v 0.000000 0.559229 -0.013504
v 0.761745 0.564294 -0.012363
v 0.752522 0.567545 -0.009343
v 0.749495 0.564216 -0.000150
v 0.000000 0.559229 -0.013504
v 0.005179 0.003251 -1.003721
v 0.003695 0.003508 -0.013354
v 0.001484 0.558972 -1.003871
v 0.766924 0.008316 -1.002581
v 0.761745 0.564294 -0.012363
v 0.765440 0.008573 -0.012214
v 0.763229 0.564037 -1.002731
v 0.017429 0.003329 -1.015935
v 0.014403 0.000000 -1.006742
v 0.005179 0.003251 -1.003721
v 0.766924 0.008316 -1.002581
v 0.757754 0.004943 -1.005629
v 0.754711 0.008231 -1.014831
v 0.013734 0.559050 -1.016086
v 0.754711 0.008231 -1.014831
v 0.017429 0.003329 -1.015935
v 0.751016 0.563953 -1.014982
v 0.752522 0.567545 -0.009343
v 0.757693 0.014140 -1.005632
v 0.756200 0.014399 -0.009194
v 0.754015 0.567286 -1.005781
v 0.756200 0.014399 -0.009194
v 0.014341 0.009197 -1.006744
v 0.012848 0.009455 -0.010307
v 0.757693 0.014140 -1.005632
v 0.014341 0.009197 -1.006744
v 0.009170 0.562602 -0.010456
v 0.012848 0.009455 -0.010307
v 0.010664 0.562343 -1.006894
v 0.009170 0.562602 -0.010456
v 0.001484 0.558972 -1.003871
v 0.000000 0.559229 -0.013504
v 0.010664 0.562343 -1.006894
v 0.761745 0.564294 -0.012363
v 0.754015 0.567286 -1.005781
v 0.752522 0.567545 -0.009343
v 0.763229 0.564037 -1.002731
v 0.001484 0.558972 -1.003871
v 0.017429 0.003329 -1.015935
v 0.005179 0.003251 -1.003721
v 0.013734 0.559050 -1.016086
v 0.754711 0.008231 -1.014831
v 0.763229 0.564037 -1.002731
v 0.766924 0.008316 -1.002581
v 0.751016 0.563953 -1.014982
v 0.754015 0.567286 -1.005781
v 0.013734 0.559050 -1.016086
v 0.010664 0.562343 -1.006894
v 0.751016 0.563953 -1.014982
v 0.757693 0.014140 -1.005632
v 0.010664 0.562343 -1.006894
v 0.014341 0.009197 -1.006744
v 0.754015 0.567286 -1.005781
v 0.013734 0.559050 -1.016086
v 0.001484 0.558972 -1.003871
v 0.010664 0.562343 -1.006894
v 0.763229 0.564037 -1.002731
v 0.751016 0.563953 -1.014982
v 0.754015 0.567286 -1.005781
v 0.757272 0.563180 -0.006342
v 0.378645 0.566520 -0.006888
v 0.378675 0.563175 -0.006887
v 0.757182 0.573315 -0.006345
v 0.378645 0.566520 -0.006888
v 0.380111 0.562906 -1.003325
v 0.378675 0.563175 -0.006887
v 0.380081 0.566251 -1.003326
v 0.380111 0.562906 -1.003325
v 0.757272 0.563180 -0.006342
v 0.378675 0.563175 -0.006887
v 0.758708 0.562911 -1.002780
v 0.758708 0.562911 -1.002780
v 0.757182 0.573315 -0.006345
v 0.757272 0.563180 -0.006342
v 0.758617 0.573046 -1.002782
v 0.757182 0.573315 -0.006345
v 0.380081 0.566251 -1.003326
v 0.378645 0.566520 -0.006888
v 0.758617 0.573046 -1.002782
v 0.380081 0.566251 -1.003326
v 0.758708 0.562911 -1.002780
v 0.380111 0.562906 -1.003325
v 0.758617 0.573046 -1.002782
vt 0.003531 0.423999
vt 0.003531 0.708467
vt 0.003531 0.423999
vt 0.003531 0.708467
vt 0.386104 0.423999
vt 0.003531 0.423999
vt 0.386104 0.423999
vt 0.003531 0.423999
vt 0.386104 0.708467
vt 0.003531 0.423999
vt 0.386104 0.423999
vt 0.003531 0.708467
vt 0.003531 0.708467
vt 0.386104 0.708467
vt 0.386104 0.708467
vt 0.003531 0.708467
vt 0.003531 0.423999
vt 0.386104 0.708467
vt 0.386104 0.423999
vt 0.003531 0.708467
vt 0.386104 0.708467
vt 0.386104 0.423999
vt 0.386104 0.423999
vt 0.386104 0.708467
vt 0.000000 0.000000
vt 0.000000 0.000000
vt 0.000000 0.000000
vt 0.000000 0.000000
vt 0.000000 0.000000
vt 0.000000 0.000000
vt 0.000000 0.000000
vt 0.000000 0.000000
vt 0.000000 0.000000
vt 0.000000 0.000000
vt 0.000000 0.000000
vt 0.000000 0.000000
vt 0.000000 0.000000
vt 0.000000 0.000000
vt 0.000000 0.000000
vt 0.000000 0.000000
vt 0.000000 0.000000
vt 0.000000 0.000000
vt 0.000000 0.000000
vt 0.000000 0.000000
vt 0.000000 0.000000
vt 0.000000 0.000000
vt 0.000000 0.000000
vt 0.000000 0.000000
vt 0.000000 0.000000
vt 0.000000 0.000000
vt 0.000000 0.000000
vt 0.000000 0.000000
vt 0.000000 0.000000
vt 0.000000 0.000000
vt 0.000000 0.000000
vt 0.000000 0.000000
vt 0.000000 0.000000
vt 0.000000 0.000000
vt 0.000000 0.000000
vt 0.000000 0.000000
vt 0.000000 0.000000
vt 0.000000 0.000000
vt 0.000000 0.000000
vt 0.000000 0.000000
vt 0.000000 0.000000
vt 0.000000 0.000000
vt 0.000000 0.000000
vt 0.000000 0.000000
vt 0.000000 0.000000
vt 0.000000 0.000000
vt 0.000000 0.000000
vt 0.000000 0.000000
vt 0.000000 0.000000
vt 0.000000 0.000000
vt 0.000000 0.000000
vt 0.000000 0.000000
vt 0.000000 0.000000
vt 0.000000 0.000000
vt 0.000000 0.000000
vt 0.000000 0.000000
vt 0.000000 0.000000
vt 0.000000 0.000000
vt 0.000000 0.000000
vt 0.000000 0.000000
vt 0.000000 0.000000
vt 0.000000 0.000000
vt 0.000000 0.000000
vt 0.000000 0.000000
vt 0.000000 0.000000
vt 0.000000 0.000000
vt 0.000000 0.000000
vt 0.000000 0.000000
vt 0.000000 0.000000
vt 0.000000 0.000000
vt 0.000000 0.000000
vt 0.000000 0.000000
vt 0.000000 0.000000
vt 0.000000 0.000000
vt 0.000000 0.000000
vt 0.000000 0.000000
vt 0.000000 0.000000
vt 0.000000 0.000000
vt 0.000000 0.000000
vt 0.000000 0.000000
vt 0.000000 0.000000
vt 0.000000 0.000000
vt 0.000000 0.000000
vt 0.000000 0.000000
vt 0.000000 0.000000
vt 0.000000 0.000000
vt 0.000000 0.000000
vt 0.000000 0.000000
vt 0.000000 0.000000
vt 0.000000 0.000000
vt 0.000000 0.000000
vt 0.000000 0.000000
vt 0.000000 0.000000
vt 0.000000 0.000000
vt 0.000000 0.000000
vt 0.000000 0.000000
vt 0.000000 0.000000
vt 0.000000 0.000000
vt 0.000000 0.000000
vt 0.000000 0.000000
vt 0.000000 0.000000
vt 0.000000 0.000000
vt 0.000000 0.000000
vt 0.000000 0.000000
vt 0.000000 0.000000
vt 0.000000 0.000000
vt 0.000000 0.000000
vt 0.000000 0.000000
vt 0.000000 0.000000
vt 0.000000 0.000000
vt 0.000000 0.000000
vt 0.000000 0.000000
vt 0.000000 0.000000
vt 0.000000 0.000000
vt 0.000000 0.000000
vt 0.000000 0.000000
vt 0.000000 0.000000
vt 0.000000 0.000000
vt 0.000000 0.000000
vt 0.000000 0.000000
vt 0.000000 0.000000
vt 0.000000 0.000000
vt 0.000000 0.000000
vt 0.000000 0.000000
vt 0.000000 0.000000
vt 0.000000 0.000000
vt 0.000000 0.000000
vt 0.000000 0.000000
vt 0.000000 0.000000
vt 0.000000 0.000000
vt 0.000000 0.000000
vt 0.000000 0.000000
vt 0.000000 0.000000
vt 0.000000 0.000000
vt 0.000000 0.000000
vt 0.000000 0.000000
vn 0.0014 -0.0003 -1.0000
vn -1.0000 -0.0090 -0.0014
vn -0.0000 1.0000 -0.0003
vn 1.0000 0.0090 0.0014
vn 0.0179 -0.9998 0.0003
vn -0.0014 0.0003 1.0000
vn 0.0057 -0.9408 0.3390
vn -0.0015 0.0003 1.0000
vn -0.4232 -0.7989 0.4274
vn 0.0066 -1.0000 0.0003
vn 0.4324 -0.7932 0.4287
vn -0.0068 0.9410 0.3384
vn -0.0068 0.9410 0.3385
vn -0.7082 -0.0045 0.7060
vn 0.7060 0.0049 0.7082
vn -0.3325 -0.9431 -0.0003
vn 0.3450 -0.9386 0.0008
vn 0.0068 -0.9410 -0.3385
vn 0.0015 -0.0003 -1.0000
vn -0.4337 0.7935 0.4269
vn 0.4219 0.7991 0.4282
vn -1.0000 -0.0066 -0.0015
vn 1.0000 0.0066 0.0015
vn -0.4219 -0.7991 -0.4283
vn 0.4337 -0.7935 -0.4270
vn -0.0066 1.0000 -0.0003
vn -0.3449 0.9386 -0.0008
vn -0.3450 0.9386 -0.0008
vn 0.3325 0.9431 0.0003
vn -0.7060 -0.0049 -0.7082
vn -0.7060 -0.0049 -0.7081
vn 0.7082 0.0045 -0.7060
vn -0.0057 0.9408 -0.3390
vn -0.4325 0.7932 -0.4287
vn 0.4232 0.7989 -0.4274
vn 0.0000 -1.0000 0.0003
vn -0.0179 0.9998 -0.0003
usemtl BOX_STUFF16.039
s off
f 1/1/1 2/2/1 3/3/1
f 2/2/1 1/1/1 4/4/1
f 5/5/2 6/6/2 7/7/2
f 6/6/2 5/5/2 8/8/2
f 9/9/3 10/10/3 11/11/3
f 10/10/3 9/9/3 12/12/3
f 13/13/4 14/14/4 15/15/4
f 14/14/4 13/13/4 16/16/4
f 17/17/5 18/18/5 19/19/5
f 18/18/5 17/17/5 20/20/5
f 21/21/6 22/22/6 23/23/6
f 22/22/6 21/21/6 24/24/6
f 25/25/7 26/26/7 27/27/7
f 26/26/7 25/25/7 28/28/7
f 29/29/8 30/30/8 31/31/8
f 30/30/8 29/29/8 32/32/8
f 33/33/9 34/34/9 35/35/9
f 36/36/10 37/37/10 38/38/10
f 37/37/10 36/36/10 39/39/10
f 40/40/11 41/41/11 42/42/11
f 43/43/12 44/44/12 45/45/12
f 44/44/13 43/43/13 46/46/13
f 47/47/14 48/48/14 49/49/14
f 48/48/14 47/47/14 50/50/14
f 51/51/15 52/52/15 53/53/15
f 52/52/15 51/51/15 54/54/15
f 55/55/16 56/56/16 57/57/16
f 56/56/16 55/55/16 58/58/16
f 59/59/17 60/60/17 61/61/17
f 60/60/17 59/59/17 62/62/17
f 63/63/18 64/64/18 65/65/18
f 64/64/18 63/63/18 66/66/18
f 67/67/19 68/68/19 69/69/19
f 68/68/19 67/67/19 70/70/19
f 71/71/20 72/72/20 73/73/20
f 74/74/21 75/75/21 76/76/21
f 77/77/22 78/78/22 79/79/22
f 78/78/22 77/77/22 80/80/22
f 81/81/23 82/82/23 83/83/23
f 82/82/23 81/81/23 84/84/23
f 85/85/24 86/86/24 87/87/24
f 88/88/25 89/89/25 90/90/25
f 91/91/19 92/92/19 93/93/19
f 92/92/19 91/91/19 94/94/19
f 95/95/22 96/96/22 97/97/22
f 96/96/22 95/95/22 98/98/22
f 99/99/26 100/100/26 101/101/26
f 100/100/26 99/99/26 102/102/26
f 103/103/23 104/104/23 105/105/23
f 104/104/23 103/103/23 106/106/23
f 107/107/27 108/108/27 109/109/27
f 108/108/28 107/107/28 110/110/28
f 111/111/29 112/112/29 113/113/29
f 112/112/29 111/111/29 114/114/29
f 115/115/30 116/116/30 117/117/30
f 116/116/31 115/115/31 118/118/31
f 119/119/32 120/120/32 121/121/32
f 120/120/32 119/119/32 122/122/32
f 123/123/33 124/124/33 125/125/33
f 124/124/33 123/123/33 126/126/33
f 127/127/8 128/128/8 129/129/8
f 128/128/8 127/127/8 130/130/8
f 131/131/34 132/132/34 133/133/34
f 134/134/35 135/135/35 136/136/35
f 137/137/6 138/138/6 139/139/6
f 138/138/6 137/137/6 140/140/6
f 141/141/2 142/142/2 143/143/2
f 142/142/2 141/141/2 144/144/2
f 145/145/36 146/146/36 147/147/36
f 146/146/36 145/145/36 148/148/36
f 149/149/4 150/150/4 151/151/4
f 150/150/4 149/149/4 152/152/4
f 153/153/37 154/154/37 155/155/37
f 154/154/37 153/153/37 156/156/37
f 157/157/1 158/158/1 159/159/1
f 158/158/1 157/157/1 160/160/1
